<?xml version="1.0" encoding="iso-8859-1"?>
<!-- Generator: Adobe Illustrator 19.0.0, SVG Export Plug-In . SVG Version: 6.00 Build 0)  -->
<svg version="1.1" id="Capa_1" xmlns="http://www.w3.org/2000/svg" xmlns:xlink="http://www.w3.org/1999/xlink" x="0px" y="0px"
	 viewBox="0 0 512.001 512.001" style="enable-background:new 0 0 512.001 512.001;" xml:space="preserve">
<g>
	<g>
		<path d="M484.058,247.98h-33.063v-37.196c0-21.164-12.568-42.986-33.986-46.858c-7.199-12.758-23.558-21.049-38.059-22.958
			c-9.962-1.313-18.968,0.281-26.001,4.365c-10.643-11.008-29.41-14.957-46.359-12.726c-25.567,3.366-43.147,18.843-46.914,40.406
			c-16.992,4.158-29.638,19.516-29.638,37.771v276.863c0,13.429,10.925,24.353,24.354,24.353h172.25
			c13.429,0,24.354-10.925,24.354-24.353v-43.828h33.063c15.408,0,27.942-13.877,27.942-30.934V278.913
			C512,261.855,499.465,247.98,484.058,247.98z M268.919,191.902c5.523,0,9.999-4.477,9.999-10c0-23.642,23.177-28.53,30.281-29.466
			c15.142-1.997,29.77,3.163,31.94,11.26c1.047,3.907,4.344,6.799,8.354,7.326c4.01,0.525,7.943-1.412,9.965-4.914
			c3.648-6.32,13.019-5.818,16.88-5.312c11.101,1.461,22.388,8.523,24.153,15.112c1.171,4.371,5.133,7.411,9.659,7.411
			c12.793,0,18.556,12.211,20.268,21.598h-23.755c-5.523,0-10,4.478-10,10v62.304c0,3.951-3.215,7.165-7.166,7.165
			s-7.165-3.214-7.165-7.165v-19.241c0-14.978-12.186-27.165-27.165-27.165s-27.165,12.187-27.165,27.165v45.139
			c0,3.951-3.214,7.165-7.165,7.165s-7.165-3.214-7.165-7.165v-88.201c0-5.522-4.477-10-10-10H250.98
			C253.456,197.371,260.557,191.902,268.919,191.902z M293.674,224.918v23.063h-43.637v-23.063H293.674z M430.995,487.647
			c0,2.359-1.994,4.353-4.354,4.353h-172.25c-2.36,0-4.354-1.994-4.354-4.353V267.98h43.637v35.139
			c0,14.979,12.186,27.165,27.165,27.165s27.165-12.187,27.165-27.165V257.98c0-3.951,3.215-7.165,7.166-7.165
			c3.95,0,7.164,3.214,7.164,7.165v19.241c0,14.979,12.186,27.165,27.166,27.165c14.979,0,27.165-12.186,27.165-27.165v-9.241h14.33
			V487.647z M430.995,247.98h-14.33v-23.063h14.33V247.98z M492,412.886c0,5.824-3.711,10.934-7.942,10.934h-33.063V267.98h33.063
			c4.231,0,7.942,5.108,7.942,10.933V412.886z"/>
	</g>
</g>
<g>
	<g>
		<path d="M340.516,351.683c-5.523,0-10,4.478-10,10v97.256c0,5.522,4.477,10,10,10s10-4.478,10-10v-97.256
			C350.516,356.16,346.039,351.683,340.516,351.683z"/>
	</g>
</g>
<g>
	<g>
		<path d="M397.933,351.683c-5.523,0-10,4.478-10,10v97.256c0,5.522,4.477,10,10,10s10-4.478,10-10v-97.256
			C407.933,356.16,403.456,351.683,397.933,351.683z"/>
	</g>
</g>
<g>
	<g>
		<path d="M283.102,380.275c-5.523,0-10,4.478-10,10v0.232c0,5.522,4.477,10,10,10s10-4.478,10-10v-0.232
			C293.102,384.754,288.625,380.275,283.102,380.275z"/>
	</g>
</g>
<g>
	<g>
		<path d="M283.1,408.689c-5.523,0-10,4.478-10,10v40.25c0,5.522,4.477,10,10,10s10-4.478,10-10v-40.25
			C293.1,413.165,288.623,408.689,283.1,408.689z"/>
	</g>
</g>
<g>
	<g>
		<path d="M94.861,169.91h-0.306c-5.523,0-10,4.477-10,10c0,5.523,4.477,10,10,10h0.306c5.523,0,10-4.478,10-10
			C104.861,174.388,100.384,169.91,94.861,169.91z"/>
	</g>
</g>
<g>
	<g>
		<path d="M158.62,173.042c-4.431-42.6-9.997-82.713-15.295-110.392c4.69-3.499,7.746-9.073,7.746-15.362V18.855
			c-0.001-10.396-8.458-18.854-18.854-18.854H69.269c-6.076,0-12.096,2.957-15.709,7.717c-2.721,3.585-3.829,7.933-3.143,12.153
			v26.432c-0.683,4.313,0.471,8.752,3.268,12.396c1.235,1.609,2.747,3.008,4.438,4.163c-5.288,27.676-10.836,67.691-15.256,110.18
			C22.096,184.159,0,218.361,0,251.96v223.628C0,495.665,17.675,512,39.401,512h122.684c21.726,0,39.401-16.335,39.401-36.413
			V251.96C201.487,218.361,179.391,184.159,158.62,173.042z M131.07,20.001v26.5c-0.037,0.003-0.073,0.011-0.11,0.014
			c-0.131,0.013-0.262,0.034-0.393,0.052c-0.208,0.027-0.415,0.057-0.619,0.097c-0.035,0.007-0.07,0.01-0.105,0.017
			c-0.073,0.016-0.143,0.04-0.215,0.057c-0.218,0.051-0.435,0.105-0.647,0.17c-0.109,0.033-0.216,0.07-0.323,0.106
			c-0.196,0.067-0.389,0.139-0.579,0.217c-0.12,0.049-0.238,0.102-0.355,0.155c-0.167,0.077-0.331,0.157-0.494,0.243
			c-0.128,0.067-0.254,0.137-0.378,0.209c-0.144,0.084-0.285,0.173-0.424,0.265c-0.128,0.083-0.255,0.168-0.378,0.257
			c-0.13,0.094-0.256,0.193-0.381,0.293c-0.12,0.096-0.239,0.191-0.354,0.291c-0.126,0.109-0.246,0.225-0.366,0.342
			c-0.102,0.1-0.206,0.196-0.303,0.299c-0.129,0.137-0.25,0.279-0.372,0.422c-0.078,0.092-0.159,0.182-0.233,0.276
			c-0.137,0.173-0.264,0.354-0.389,0.537c-0.05,0.072-0.103,0.142-0.15,0.215c-0.143,0.22-0.274,0.448-0.399,0.679
			c-0.023,0.043-0.05,0.084-0.073,0.127c-0.142,0.272-0.271,0.549-0.388,0.834c-0.003,0.008-0.007,0.016-0.01,0.023
			c-0.358,0.878-0.598,1.817-0.692,2.8c-0.021,0.218-0.025,0.439-0.032,0.659c-0.004,0.105-0.015,0.207-0.015,0.313
			c0,0.003,0,0.006,0,0.009c0.001,0.192,0.018,0.388,0.029,0.581c0.03,0.507,0.087,1.006,0.19,1.489
			c2.798,13.376,5.723,30.764,8.549,50.549c-15.787,1.088-34.424,0.264-49.952-0.425c-3.461-0.154-6.712-0.297-9.761-0.414
			c2.735-19.062,5.559-35.85,8.27-48.932c0.271-0.905,0.423-1.862,0.423-2.855c0-5.164-3.878-9.4-8.896-9.932
			c-0.057-0.006-0.114-0.015-0.171-0.021c-0.053-0.005-0.104-0.015-0.156-0.019V20.001H131.07z M55.046,189.499
			c3.897-1.149,6.71-4.543,7.119-8.586c1.842-18.238,3.901-36.082,6.064-52.742c3.521,0.123,7.403,0.294,11.591,0.48
			c10.319,0.458,21.955,0.975,33.454,0.975c6.847,0,13.64-0.189,20.084-0.677c1.69,13.061,3.314,26.84,4.82,40.959h-15.016
			c-5.523,0-10,4.477-10,10c0,5.522,4.477,10,10,10h24.444c10.847,4.376,29.007,26.756,33.053,52.052H20.828
			C25.023,215.735,44.389,192.645,55.046,189.499z M181.487,475.587c0,8.896-8.885,16.413-19.401,16.413H39.401
			c-10.516,0-19.401-7.517-19.401-16.413v-20.775h161.487V475.587z M181.487,434.813H20V261.96h161.487V434.813z"/>
	</g>
</g>
<g>
	<g>
		<path d="M100.744,303.42c-24.795,0-44.967,20.172-44.967,44.966s20.172,44.966,44.967,44.966
			c24.794,0,44.966-20.172,44.966-44.966S125.539,303.42,100.744,303.42z M100.744,373.352c-13.767,0-24.967-11.199-24.967-24.966
			c0-13.767,11.2-24.966,24.967-24.966c13.766,0,24.966,11.199,24.966,24.966C125.71,362.152,114.51,373.352,100.744,373.352z"/>
	</g>
</g>
<g>
</g>
<g>
</g>
<g>
</g>
<g>
</g>
<g>
</g>
<g>
</g>
<g>
</g>
<g>
</g>
<g>
</g>
<g>
</g>
<g>
</g>
<g>
</g>
<g>
</g>
<g>
</g>
<g>
</g>
</svg>
