<?xml version="1.0" encoding="iso-8859-1"?>
<!-- Generator: Adobe Illustrator 19.0.0, SVG Export Plug-In . SVG Version: 6.00 Build 0)  -->
<svg version="1.1" id="Layer_1" xmlns="http://www.w3.org/2000/svg" xmlns:xlink="http://www.w3.org/1999/xlink" x="0px" y="0px"
	 viewBox="0 0 512.001 512.001" style="enable-background:new 0 0 512.001 512.001;" xml:space="preserve">
<g>
	<g>
		<path d="M168.852,92.596H98.043c-40.546,0-73.532,32.986-73.532,73.532v304.114C24.511,493.267,43.244,512,66.27,512
			c13.753,0,25.976-6.684,33.588-16.973C107.472,505.316,119.694,512,133.447,512c13.753,0,25.976-6.684,33.588-16.973
			C174.649,505.316,186.871,512,200.624,512c23.026,0,41.758-18.733,41.758-41.758V166.128
			C242.384,125.582,209.398,92.596,168.852,92.596z M226.043,470.242c0,14.016-11.402,25.418-25.418,25.418
			c-14.016,0-25.418-11.402-25.418-25.418c0-4.512-3.658-8.17-8.17-8.17c-4.512,0-8.17,3.658-8.17,8.17
			c0,14.016-11.402,25.418-25.418,25.418s-25.418-11.402-25.418-25.418c0-4.512-3.658-8.17-8.17-8.17s-8.17,3.658-8.17,8.17
			c0,14.016-11.402,25.418-25.418,25.418c-14.018,0-25.42-11.402-25.42-25.418V337.702h185.191V470.242z M226.043,321.362H40.852
			V206.979h185.191V321.362z M226.043,190.638H40.852v-24.511c0-31.536,25.656-57.192,57.191-57.192h70.809
			c31.536,0,57.191,25.656,57.191,57.192V190.638z"/>
	</g>
</g>
<g>
	<g>
		<circle cx="132.543" cy="383.542" r="8.17"/>
	</g>
</g>
<g>
	<g>
		<circle cx="168.852" cy="149.787" r="8.17"/>
	</g>
</g>
<g>
	<g>
		<circle cx="99.862" cy="416.223" r="8.17"/>
	</g>
</g>
<g>
	<g>
		<path d="M190.639,59.915h-2.723V8.17c0-4.512-3.658-8.17-8.17-8.17H87.149c-4.512,0-8.17,3.658-8.17,8.17v51.745h-2.723
			c-4.512,0-8.17,3.658-8.17,8.17c0,4.512,3.658,8.17,8.17,8.17h114.383c4.512,0,8.17-3.658,8.17-8.17
			C198.809,63.573,195.151,59.915,190.639,59.915z M171.575,59.915H95.32V16.34h76.255V59.915z"/>
	</g>
</g>
<g>
	<g>
		<path d="M435.745,59.915h-2.723V8.17c0-4.512-3.658-8.17-8.17-8.17h-92.596c-4.512,0-8.17,3.658-8.17,8.17v51.745h-2.723
			c-4.512,0-8.17,3.658-8.17,8.17c0,4.512,3.658,8.17,8.17,8.17h114.383c4.512,0,8.17-3.658,8.17-8.17
			C443.915,63.573,440.258,59.915,435.745,59.915z M416.681,59.915h-76.255V16.34h76.255V59.915z"/>
	</g>
</g>
<g>
	<g>
		<path d="M475.135,148.344l-44.007-52.809c-1.553-1.862-3.852-2.939-6.277-2.939h-92.596c-2.425,0-4.725,1.077-6.277,2.94
			l-44.007,52.809c-6.927,8.313-12.354,23.303-12.354,34.124v32.681c0,10.177,3.788,19.821,10.449,27.234
			c-6.661,7.413-10.449,17.057-10.449,27.234v32.681c0,10.177,3.788,19.821,10.449,27.234c-6.661,7.413-10.449,17.057-10.449,27.234
			v113.476c0,23.026,18.733,41.758,41.758,41.758H445.73c23.026,0,41.758-18.733,41.758-41.758V356.766
			c0-10.177-3.788-19.821-10.449-27.234c6.661-7.413,10.449-17.057,10.449-27.234v-32.681c0-10.177-3.788-19.821-10.449-27.234
			c6.661-7.413,10.449-17.057,10.449-27.234v-32.681h0.001C487.49,171.646,482.064,156.658,475.135,148.344z M471.15,215.149
			L471.15,215.149c0,8.202-4.124,15.838-11.033,20.429c-2.279,1.514-3.648,4.069-3.648,6.805s1.369,5.29,3.648,6.805
			c6.909,4.591,11.033,12.228,11.033,20.429v32.681c0,8.202-4.124,15.838-11.033,20.429c-2.279,1.514-3.648,4.069-3.648,6.805
			s1.369,5.29,3.648,6.805c6.909,4.591,11.033,12.228,11.033,20.429v113.476c0,14.016-11.402,25.418-25.418,25.418H311.376
			c-14.016,0-25.418-11.402-25.418-25.418V356.766c0-8.201,4.124-15.838,11.033-20.429c2.279-1.514,3.648-4.069,3.648-6.805
			s-1.369-5.29-3.648-6.805c-6.909-4.591-11.033-12.228-11.033-20.429v-32.681c0-8.201,4.124-15.838,11.033-20.429
			c2.279-1.514,3.648-4.069,3.648-6.805s-1.369-5.29-3.648-6.805c-6.909-4.591-11.033-12.228-11.033-20.429v-32.681
			c0-7.129,4.003-18.187,8.568-23.663l41.557-49.869h84.943l41.557,49.869c4.563,5.476,8.567,16.534,8.567,23.663V215.149z"/>
	</g>
</g>
<g>
	<g>
		<path d="M431.957,234.213H325.15c-4.512,0-8.17,3.658-8.17,8.17s3.658,8.17,8.17,8.17h106.808c4.512,0,8.17-3.658,8.17-8.17
			S436.47,234.213,431.957,234.213z"/>
	</g>
</g>
<g>
	<g>
		<path d="M431.957,321.362H325.15c-4.512,0-8.17,3.658-8.17,8.17s3.658,8.17,8.17,8.17h106.808c4.512,0,8.17-3.658,8.17-8.17
			S436.47,321.362,431.957,321.362z"/>
	</g>
</g>
<g>
</g>
<g>
</g>
<g>
</g>
<g>
</g>
<g>
</g>
<g>
</g>
<g>
</g>
<g>
</g>
<g>
</g>
<g>
</g>
<g>
</g>
<g>
</g>
<g>
</g>
<g>
</g>
<g>
</g>
</svg>
