<?xml version="1.0" encoding="utf-8"?>
<!-- Generator: Adobe Illustrator 15.0.2, SVG Export Plug-In . SVG Version: 6.00 Build 0)  -->
<!DOCTYPE svg PUBLIC "-//W3C//DTD SVG 1.1//EN" "http://www.w3.org/Graphics/SVG/1.1/DTD/svg11.dtd">
<svg version="1.1" id="Capa_1" xmlns="http://www.w3.org/2000/svg" xmlns:xlink="http://www.w3.org/1999/xlink" x="0px" y="0px"
	 width="841.889px" height="595.281px" viewBox="0 0 841.889 595.281" enable-background="new 0 0 841.889 595.281"
	 xml:space="preserve">
<g>
	<path d="M677.876,365.281c37.403-39.247,50.242-95.234,33.454-146.906c-16.924-52.087-60.63-89.923-114.456-99.377
		c-14.052-12.742-29.487-23.981-46.051-33.468C525.197,37.264,475.714,7.395,420.948,7.395c-54.771,0-104.255,29.87-129.881,78.14
		c-16.555,9.484-31.982,20.719-46.027,33.454c-53.839,9.447-97.551,47.283-114.479,99.382
		c-16.792,51.683-3.944,107.677,33.473,146.924c3.959,19.54,10.096,38.299,18.147,56.01
		c-7.155,53.706,15.375,106.526,59.293,138.435c25.661,18.645,55.882,28.145,86.331,28.143c21.467-0.001,43.045-4.737,63.209-14.309
		c9.827,1.122,19.812,1.719,29.935,1.719c10.118,0,20.098-0.597,29.92-1.718c20.165,9.575,41.739,14.311,63.21,14.311
		c30.445,0,60.673-9.501,86.331-28.143c43.907-31.9,66.438-84.709,59.298-138.401C667.772,403.615,673.916,384.84,677.876,365.281z
		 M692.377,224.533c11.078,34.093,7.239,70.367-9.578,100.721c0.183-4.008,0.289-8.036,0.289-12.089
		c0-62.436-21.955-119.831-58.533-164.905C656.421,162.819,681.18,190.071,692.377,224.533z M420.948,27.324
		c36.254,0,69.837,15.141,93.531,40.969c-29.066-11.139-60.595-17.262-93.531-17.262c-32.938,0-64.47,6.125-93.535,17.266
		C351.107,42.465,384.691,27.324,420.948,27.324z M149.512,224.528c11.202-34.475,35.973-61.731,67.852-76.287
		c-36.586,45.076-58.546,102.479-58.546,164.924c0,4.062,0.105,8.1,0.29,12.116C142.277,294.923,138.431,258.635,149.512,224.528z
		 M253.188,543.618c-28.913-21.008-47.109-52.502-51.412-86.838c34.486,52.451,87.269,91.841,149.204,109.016
		C317.195,572.077,281.885,564.469,253.188,543.618z M178.747,313.165c0-133.553,108.65-242.205,242.2-242.205
		c133.557,0,242.212,108.652,242.212,242.205c0,133.55-108.655,242.198-242.212,242.198
		C287.398,555.365,178.747,446.715,178.747,313.165z M588.697,543.621c-28.699,20.852-64.008,28.459-97.791,22.179
		c61.929-17.167,114.707-56.543,149.197-108.978C635.789,491.142,617.597,522.622,588.697,543.621z"/>
	<path d="M420.948,243.002c-38.686,0-70.156,31.473-70.156,70.157c0,38.68,31.472,70.148,70.156,70.148
		c38.682,0,70.149-31.47,70.149-70.148C491.097,274.474,459.629,243.002,420.948,243.002z M420.948,363.381
		c-27.696,0-50.228-22.53-50.228-50.221c0-27.696,22.531-50.229,50.228-50.229c27.691,0,50.221,22.532,50.221,50.229
		C471.168,340.85,448.639,363.381,420.948,363.381z"/>
	<path d="M498.918,171.427h-6.903c-5.502,0-9.964,4.462-9.964,9.965s4.462,9.964,9.964,9.964h6.903c5.503,0,9.964-4.461,9.964-9.964
		S504.421,171.427,498.918,171.427z"/>
	<path d="M551.77,251.788c1.946,1.945,4.496,2.918,7.047,2.918s5.101-0.973,7.046-2.918c3.891-3.893,3.891-10.199,0-14.092
		l-4.882-4.882c-3.892-3.89-10.199-3.89-14.092,0c-3.891,3.893-3.891,10.2,0,14.093L551.77,251.788z"/>
	<path d="M444.297,145.068c2.551,0,5.101-0.973,7.046-2.918l4.882-4.881c3.891-3.893,3.891-10.2,0-14.093
		c-3.893-3.89-10.2-3.89-14.092,0l-4.882,4.882c-3.891,3.893-3.891,10.199,0,14.092
		C439.197,144.095,441.746,145.068,444.297,145.068z"/>
	<path d="M546.646,342.991v-6.904c0-5.503-4.461-9.965-9.964-9.965s-9.965,4.462-9.965,9.965v6.904c0,5.503,4.462,9.964,9.965,9.964
		S546.646,348.494,546.646,342.991z"/>
	<path d="M300.287,433.211c-3.892-3.891-10.199-3.891-14.092,0c-3.891,3.892-3.891,10.199,0,14.092l4.882,4.881
		c1.945,1.946,4.495,2.919,7.046,2.919s5.101-0.973,7.046-2.919c3.891-3.892,3.891-10.199,0-14.092L300.287,433.211z"/>
	<path d="M282.628,188.762c-3.893-3.89-10.199-3.89-14.092,0l-4.881,4.881c-3.892,3.893-3.892,10.2,0,14.092
		c1.945,1.946,4.495,2.919,7.046,2.919s5.101-0.973,7.046-2.919l4.881-4.881C286.52,198.964,286.52,192.654,282.628,188.762z"/>
	<path d="M308.068,207.261c-5.503,0-9.965,4.461-9.965,9.964v6.902c0,5.503,4.462,9.965,9.965,9.965s9.964-4.462,9.964-9.965v-6.902
		C318.031,211.722,313.571,207.261,308.068,207.261z"/>
	<path d="M546.889,447.021l-4.881,4.881c-3.892,3.893-3.892,10.2,0,14.092c1.945,1.946,4.495,2.919,7.046,2.919
		s5.101-0.973,7.046-2.919l4.881-4.881c3.892-3.893,3.892-10.2,0-14.092C557.09,443.132,550.781,443.132,546.889,447.021z"/>
	<path d="M347.05,215.719h6.903c5.503,0,9.964-4.462,9.964-9.964c0-5.503-4.461-9.965-9.964-9.965h-6.903
		c-5.503,0-9.964,4.462-9.964,9.965C337.086,211.258,341.547,215.719,347.05,215.719z"/>
	<path d="M453.784,468.127c-3.893-3.89-10.199-3.89-14.092,0c-3.892,3.893-3.892,10.2,0,14.092l4.881,4.882
		c1.946,1.945,4.495,2.918,7.046,2.918c2.552,0,5.101-0.973,7.047-2.918c3.891-3.893,3.891-10.2,0-14.093L453.784,468.127z"/>
	<path d="M254.872,384.799c-5.502,0-9.964,4.462-9.964,9.964v6.903c0,5.503,4.462,9.964,9.964,9.964
		c5.503,0,9.965-4.461,9.965-9.964v-6.903C264.837,389.26,260.375,384.799,254.872,384.799z"/>
	<path d="M331.476,382.836l-4.881,4.881c-3.892,3.893-3.892,10.2,0,14.093c1.945,1.945,4.495,2.918,7.046,2.918
		s5.101-0.973,7.046-2.918l4.882-4.882c3.891-3.893,3.891-10.199,0-14.092C341.677,378.946,335.368,378.946,331.476,382.836z"/>
	<path d="M367.353,140.187h6.904c5.503,0,9.964-4.462,9.964-9.965c0-5.502-4.461-9.964-9.964-9.964h-6.904
		c-5.503,0-9.964,4.462-9.964,9.964C357.389,135.725,361.85,140.187,367.353,140.187z"/>
	<path d="M581.89,366.299c-3.893-3.89-10.199-3.89-14.092,0c-3.892,3.893-3.892,10.199,0,14.092l4.881,4.882
		c1.946,1.945,4.495,2.918,7.046,2.918c2.552,0,5.101-0.973,7.047-2.918c3.891-3.893,3.891-10.2,0-14.093L581.89,366.299z"/>
	<path d="M615.455,336.51c2.551,0,5.1-0.974,7.046-2.919l4.881-4.881c3.892-3.893,3.892-10.2,0-14.093
		c-3.892-3.89-10.199-3.89-14.092,0l-4.882,4.882c-3.891,3.893-3.891,10.199,0,14.092
		C610.355,335.536,612.905,336.51,615.455,336.51z"/>
	<path d="M415.323,509.148l-4.881,4.882c-3.892,3.893-3.892,10.2,0,14.092c1.945,1.946,4.495,2.919,7.046,2.919
		s5.101-0.974,7.046-2.919l4.881-4.881c3.892-3.893,3.892-10.2,0-14.093C425.525,505.259,419.216,505.259,415.323,509.148z"/>
</g>
</svg>
